<svg preserveAspectRatio="none" width="100%" height="100%" overflow="visible" style="display: block;" viewBox="0 0 116 116" fill="none" xmlns="http://www.w3.org/2000/svg">
<g id="Image Placeholder" filter="url(#filter0_d_0_4)">
<rect id="Image Container" x="8" y="7" width="100" height="100" rx="13.8889" fill="var(--fill-0, #650709)"/>
<path id="Vector" d="M59.4977 60.0822C58.8065 58.0274 59.2673 56.4292 59.4977 55.516C59.2673 54.6027 58.8064 53.2329 59.2673 51.1781C59.9585 49.3516 61.1106 48.4384 61.8018 47.7534C62.0323 46.8402 62.4931 45.4703 64.3364 44.1005C65.9493 42.9589 67.5622 42.9589 68.4839 42.9589C68.7143 42.7306 69.1751 42.5023 69.6359 42.274V35.653C69.8664 33.5982 68.2535 32 66.1797 32H36.6866C34.6129 32 33 33.5982 33 35.653V58.0274C33 60.0822 34.6129 61.6804 36.6866 61.6804H60.4194C59.9585 61.2237 59.7281 60.7671 59.4977 60.0822ZM37.6083 41.1324V36.5662L51.4332 43.4155L65.2581 36.5662V41.1324L51.4332 47.9817L37.6083 41.1324ZM82.7696 52.3196C82.3088 50.9498 81.1567 50.7215 80.4654 50.0365C80.0046 49.3516 80.0046 47.9817 78.8525 47.2968C77.7005 46.3836 76.5484 46.8402 75.6267 46.6119C74.7051 46.3836 74.0138 45.242 72.6313 45.242C71.2488 45.242 70.5576 46.1553 69.6359 46.6119C68.7143 46.8402 67.5622 46.3836 66.4101 47.2968C65.2581 47.9817 65.4885 49.1233 64.7972 50.0365C64.106 50.7215 62.9539 51.1781 62.4931 52.3196C62.0323 53.6895 62.9539 54.6027 62.9539 55.516C62.9539 56.4292 62.0323 57.3425 62.4931 58.7123C62.9539 60.0822 64.106 60.3105 64.7972 60.9954C65.2581 61.6804 65.2581 63.0502 66.4101 63.7352C67.5622 64.6484 68.7143 64.1918 69.6359 64.4201C70.5576 64.6484 71.2488 65.79 72.6313 65.79C74.0138 65.79 74.7051 64.8767 75.6267 64.4201C76.5484 64.1918 77.7005 64.6484 78.8525 63.7352C80.0046 62.8219 80.0046 61.6804 80.4654 60.9954C81.1567 60.3105 82.3088 59.8539 82.7696 58.7123C83.2304 57.3425 82.3088 56.4292 82.3088 55.516C82.3088 54.6027 83.2304 53.6895 82.7696 52.3196ZM72.6313 62.5936C68.7143 62.5936 65.7189 59.3973 65.7189 55.7443C65.7189 52.0913 68.9447 48.895 72.6313 48.895C76.318 48.895 79.5438 52.0913 79.5438 55.7443C79.5438 59.3973 76.5484 62.5936 72.6313 62.5936ZM76.0876 55.516C76.0876 57.3425 74.4747 58.9406 72.6313 58.9406C70.788 58.9406 69.1751 57.3425 69.1751 55.516C69.1751 53.6895 70.788 52.0913 72.6313 52.0913C74.4747 52.0913 76.0876 53.6895 76.0876 55.516ZM75.6267 68.758L74.4747 74.9224L73.0922 82L68.4839 77.6621L62.9539 80.1735L65.2581 67.1598C66.1797 67.6164 67.3318 67.8448 68.4839 67.8448C69.1751 68.3014 70.0968 68.758 70.788 68.9863C71.2488 69.2146 71.9401 69.2146 72.6313 69.2146C73.7834 69.4429 74.7051 69.2146 75.6267 68.758ZM83 74.2374L78.3917 72.6393L79.3134 67.6164L80.6959 66.9315L80.9263 66.7032L83 74.2374Z" fill="var(--fill-0, white)"/>
</g>
<defs>
<filter id="filter0_d_0_4" x="0.361112" y="0.611112" width="115.278" height="115.278" filterUnits="userSpaceOnUse" color-interpolation-filters="sRGB">
<feFlood flood-opacity="0" result="BackgroundImageFix"/>
<feColorMatrix in="SourceAlpha" type="matrix" values="0 0 0 0 0 0 0 0 0 0 0 0 0 0 0 0 0 0 127 0" result="hardAlpha"/>
<feOffset dy="1.25"/>
<feGaussianBlur stdDeviation="3.81944"/>
<feComposite in2="hardAlpha" operator="out"/>
<feColorMatrix type="matrix" values="0 0 0 0 0 0 0 0 0 0 0 0 0 0 0 0 0 0 0.08 0"/>
<feBlend mode="normal" in2="BackgroundImageFix" result="effect1_dropShadow_0_4"/>
<feBlend mode="normal" in="SourceGraphic" in2="effect1_dropShadow_0_4" result="shape"/>
</filter>
</defs>
</svg>
